<svg width="650" height="520" viewBox="0 0 650 520" fill="none" xmlns="http://www.w3.org/2000/svg">
<g clip-path="url(#clip0_45_31)">
<path d="M0 155C0 140 10 130 25 130H495C509 130 520 120 520 105V25C520 10 530 0 545 0H625C640 0 650 12 650 25V106C650 119 640 130 625 130H545C531 130 520 141 520 155V235C520 250 509 260 495 260H25C11 260 0 250 0 235V155Z" fill="#D9D9D9"/>
<path d="M495 390H25C9 390 0 401 0 415V496C0 509.5 12.5 520 25 520H495C510 520 520 509 520 495V415C520 401 510 390 495 390Z" fill="#D9D9D9"/>
<path d="M0 155C0 140 10 130 25 130H495C509 130 520 120 520 105V25C520 10 530 0 545 0H625C640 0 650 12 650 25V106C650 119 640 130 625 130H545C531 130 520 141 520 155V235C520 250 509 260 495 260H25C11 260 0 250 0 235V155Z" stroke="black"/>
<path d="M495 390H25C9 390 0 401 0 415V496C0 509.5 12.5 520 25 520H495C510 520 520 509 520 495V415C520 401 510 390 495 390Z" stroke="black"/>
</g>
<defs>
<clipPath id="clip0_45_31">
<rect width="650" height="520" fill="white"/>
</clipPath>
</defs>
</svg>
