<svg width="16" height="14" viewBox="0 0 16 14" fill="none" xmlns="http://www.w3.org/2000/svg">
<path d="M15.0802 3.98074V12.6474C15.0802 12.839 15.0041 13.0227 14.8687 13.1581C14.7332 13.2935 14.5495 13.3696 14.358 13.3696H1.35796C1.16642 13.3696 0.982719 13.2935 0.847276 13.1581C0.711833 13.0227 0.635742 12.839 0.635742 12.6474V3.25852H14.358C14.5495 3.25852 14.7332 3.33461 14.8687 3.47005C15.0041 3.60549 15.0802 3.78919 15.0802 3.98074ZM8.15696 1.81407H0.635742V1.09185C0.635742 0.900306 0.711833 0.716606 0.847276 0.581163C0.982719 0.44572 1.16642 0.369629 1.35796 0.369629H6.71252L8.15696 1.81407Z" fill="#43D9AD"/>
</svg>
