<svg width="16" height="14" viewBox="0 0 16 14" fill="none" xmlns="http://www.w3.org/2000/svg">
<path d="M15.0802 4.49392V13.1606C15.0802 13.3521 15.0041 13.5358 14.8687 13.6713C14.7332 13.8067 14.5495 13.8828 14.358 13.8828H1.35796C1.16642 13.8828 0.982719 13.8067 0.847276 13.6713C0.711833 13.5358 0.635742 13.3521 0.635742 13.1606V3.7717H14.358C14.5495 3.7717 14.7332 3.84779 14.8687 3.98324C15.0041 4.11868 15.0802 4.30238 15.0802 4.49392ZM8.15696 2.32726H0.635742V1.60503C0.635742 1.41349 0.711833 1.22979 0.847276 1.09435C0.982719 0.958904 1.16642 0.882813 1.35796 0.882812H6.71252L8.15696 2.32726Z" fill="#3A49A4"/>
</svg>
