<svg width="24" height="25" viewBox="0 0 24 25" fill="none" xmlns="http://www.w3.org/2000/svg">
<g opacity="1" clip-path="url(#clip0_64_1617)">
<path d="M17 4.87793C18.5913 4.87793 20.1174 5.51007 21.2426 6.63529C22.3679 7.76051 23 9.28663 23 10.8779V14.8779C23 16.4692 22.3679 17.9954 21.2426 19.1206C20.1174 20.2458 18.5913 20.8779 17 20.8779H7C5.4087 20.8779 3.88258 20.2458 2.75736 19.1206C1.63214 17.9954 1 16.4692 1 14.8779V10.8779C1 9.28663 1.63214 7.76051 2.75736 6.63529C3.88258 5.51007 5.4087 4.87793 7 4.87793H17ZM10 9.87793H8V11.8779H6V13.8779H7.999L8 15.8779H10L9.999 13.8779H12V11.8779H10V9.87793ZM18 13.8779H16V15.8779H18V13.8779ZM16 9.87793H14V11.8779H16V9.87793Z" fill="#607B96"/>
</g>
<defs>
<clipPath id="clip0_64_1617">
<rect width="24" height="24" fill="white" transform="translate(0 0.87793)"/>
</clipPath>
</defs>
</svg>
