<svg width="16" height="16" viewBox="0 0 16 16" fill="none" xmlns="http://www.w3.org/2000/svg">
<path d="M6.22222 2.66667V4.44444H1.77778V14.2222H11.5556V9.77778H13.3333V15.1111C13.3333 15.3469 13.2397 15.573 13.073 15.7397C12.9063 15.9064 12.6802 16 12.4444 16H0.888889C0.653141 16 0.427048 15.9064 0.260349 15.7397C0.0936505 15.573 0 15.3469 0 15.1111V3.55556C0 3.31981 0.0936505 3.09372 0.260349 2.92702C0.427048 2.76032 0.653141 2.66667 0.888889 2.66667H6.22222ZM16 0V7.11111H14.2222V3.03378L7.29511 9.96178L6.03822 8.70489L12.9644 1.77778H8.88889V0H16Z" fill="#607B96"/>
</svg>
