<svg width="17" height="17" viewBox="0 0 17 17" fill="none" xmlns="http://www.w3.org/2000/svg">
<path d="M16.221 12.496V15.6825C16.2211 15.9107 16.1347 16.1304 15.9791 16.2973C15.8236 16.4642 15.6105 16.5659 15.3829 16.5819C14.9891 16.6089 14.6674 16.6234 14.4187 16.6234C6.45507 16.6234 0 10.1683 0 2.20468C0 1.95596 0.0135175 1.63424 0.0414537 1.24043C0.0574246 1.01283 0.159129 0.799769 0.326046 0.644225C0.492962 0.488682 0.712664 0.402241 0.940819 0.402344H4.12735C4.23913 0.402231 4.34696 0.44367 4.4299 0.518613C4.51283 0.593555 4.56495 0.69665 4.57613 0.80787C4.59686 1.01514 4.61578 1.18005 4.63381 1.30531C4.8129 2.55517 5.17992 3.77076 5.72242 4.91089C5.80803 5.09112 5.75215 5.3065 5.58994 5.42185L3.64522 6.81145C4.83427 9.58205 7.04222 11.79 9.81282 12.979L11.2006 11.0379C11.2573 10.9586 11.3401 10.9017 11.4345 10.8772C11.5288 10.8527 11.6288 10.862 11.717 10.9037C12.857 11.4451 14.0723 11.8112 15.3217 11.9896C15.4469 12.0076 15.6118 12.0274 15.8173 12.0472C15.9284 12.0586 16.0312 12.1108 16.106 12.1937C16.1807 12.2767 16.2221 12.3844 16.2219 12.496H16.221Z" fill="#607B96"/>
</svg>
