<svg width="28" height="28" viewBox="0 0 28 28" fill="none" xmlns="http://www.w3.org/2000/svg">
<rect width="28" height="28" rx="2" fill="#A456F0"/>
<g clip-path="url(#clip0_3057_1036)">
<path d="M14 4C8.5 4 4 8.5 4 14C4 19.5 8.5 24 14 24C19.5 24 24 19.5 24 14C24 8.5 19.5 4 14 4ZM8.429 19.571C6.929 18.071 6.143 16.071 6.143 14.143L13.929 21.857C11.929 21.786 9.929 21.071 8.429 19.571V19.571ZM15.714 21.643L6.357 12.286C7.143 8.786 10.286 6.143 14 6.143C16.643 6.143 18.929 7.429 20.357 9.357L19.286 10.286C18.07 8.643 16.143 7.57 14 7.57C11.214 7.57 8.857 9.356 7.929 11.856L16.143 20.07C18.214 19.356 19.786 17.57 20.286 15.428H16.857V14H21.857C21.857 17.714 19.214 20.857 15.714 21.643V21.643Z" fill="#011221"/>
</g>
<defs>
<clipPath id="clip0_3057_1036">
<rect width="20.4418" height="20.4418" fill="white" transform="translate(4 4)"/>
</clipPath>
</defs>
</svg>
