<svg width="29" height="29" viewBox="0 0 29 29" fill="none" xmlns="http://www.w3.org/2000/svg">
<rect x="0.652832" y="0.695801" width="28" height="28" rx="2" fill="#86E1F9"/>
<g clip-path="url(#clip0_3054_457)">
<path d="M14.6532 15.9733C14.3144 15.9733 13.9894 15.8387 13.7498 15.5991C13.5102 15.3595 13.3756 15.0345 13.3756 14.6957C13.3756 14.3568 13.5102 14.0318 13.7498 13.7922C13.9894 13.5526 14.3144 13.418 14.6532 13.418C14.9921 13.418 15.317 13.5526 15.5566 13.7922C15.7962 14.0318 15.9308 14.3568 15.9308 14.6957C15.9308 15.0345 15.7962 15.3595 15.5566 15.5991C15.317 15.8387 14.9921 15.9733 14.6532 15.9733ZM14.2035 18.5234C14.3526 18.7022 14.5025 18.876 14.6532 19.0421C14.804 18.876 14.9539 18.7031 15.1029 18.5234C14.8032 18.5297 14.5033 18.5297 14.2035 18.5234ZM12.5043 18.4169C11.8502 18.3488 11.2004 18.2442 10.5581 18.1035C10.4942 18.4016 10.4456 18.6912 10.4133 18.9688C10.2514 20.3171 10.4771 21.1365 10.8204 21.3341C11.1637 21.5326 11.9856 21.3179 13.0733 20.5045C13.2973 20.3367 13.523 20.1502 13.7495 19.9466C13.3062 19.4604 12.8905 18.9497 12.5043 18.4169ZM18.7484 18.1035C18.1377 18.2397 17.4853 18.3454 16.8022 18.4169C16.416 18.9497 16.0003 19.4604 15.5569 19.9466C15.7835 20.151 16.0092 20.3367 16.2332 20.5045C17.3209 21.3179 18.1428 21.5326 18.4861 21.3341C18.8293 21.1365 19.0542 20.3171 18.894 18.9688C18.8589 18.6783 18.8106 18.3896 18.7492 18.1035H18.7484ZM19.9834 17.7738C20.4749 20.0216 20.2168 21.8111 19.1249 22.4414C18.0329 23.0717 16.3542 22.4005 14.6532 20.8512C12.9523 22.4005 11.2735 23.0708 10.1816 22.4405C9.08966 21.8102 8.83159 20.0216 9.32219 17.773C7.12981 17.0754 5.70996 15.9562 5.70996 14.6957C5.70996 13.4351 7.12981 12.3167 9.32219 11.6175C8.83159 9.36972 9.08966 7.58022 10.1816 6.94993C11.2735 6.31964 12.9523 6.99081 14.6532 8.54013C16.3542 6.99081 18.0329 6.32049 19.1249 6.95078C20.2168 7.58107 20.4749 9.36972 19.9843 11.6183C22.1766 12.3159 23.5965 13.4351 23.5965 14.6957C23.5965 15.9562 22.1766 17.0746 19.9843 17.7738H19.9834ZM13.7487 9.44468C13.5321 9.24861 13.3067 9.06246 13.0733 8.88679C11.9856 8.07337 11.1637 7.85874 10.8204 8.05719C10.4771 8.25479 10.2523 9.07417 10.4124 10.4225C10.4465 10.701 10.4942 10.9897 10.5572 11.2878C11.1999 11.1471 11.8499 11.0424 12.5043 10.9744C12.9089 10.4182 13.3262 9.90632 13.7495 9.44468H13.7487ZM16.8022 10.9744C17.4853 11.0459 18.1377 11.1524 18.7484 11.2878C18.8123 10.9897 18.8608 10.7001 18.8932 10.4225C19.055 9.07417 18.8293 8.25479 18.4861 8.05719C18.1428 7.85874 17.3209 8.07337 16.2332 8.88679C15.9995 9.06244 15.7738 9.24859 15.5569 9.44468C15.9802 9.90632 16.3976 10.4182 16.8022 10.9744ZM15.1029 10.8679C14.9539 10.6891 14.804 10.5153 14.6532 10.3492C14.5025 10.5153 14.3526 10.6882 14.2035 10.8679C14.5033 10.8616 14.8032 10.8616 15.1029 10.8679ZM11.5631 16.9988C11.4077 16.7425 11.2578 16.4829 11.1134 16.2203C11.0325 16.4392 10.9575 16.6547 10.8894 16.8684C11.1083 16.9161 11.3331 16.9596 11.5623 16.9988H11.5631ZM13.2087 17.1981C14.1704 17.2695 15.1361 17.2695 16.0978 17.1981C16.6405 16.4008 17.1234 15.5644 17.5423 14.6957C17.1234 13.8269 16.6405 12.9905 16.0978 12.1932C15.1361 12.1218 14.1704 12.1218 13.2087 12.1932C12.6659 12.9905 12.1831 13.8269 11.7641 14.6957C12.1831 15.5644 12.6659 16.4008 13.2087 17.1981ZM18.1931 13.171C18.274 12.9521 18.3489 12.7367 18.4171 12.5229C18.1938 12.4744 17.9694 12.431 17.7442 12.3925C17.8993 12.6488 18.049 12.9084 18.1931 13.171ZM9.65352 12.8533C9.36393 12.947 9.08966 13.0492 8.83244 13.16C7.58464 13.6949 6.98757 14.2996 6.98757 14.6957C6.98757 15.0917 7.58379 15.6964 8.83244 16.2313C9.08966 16.3421 9.36393 16.4443 9.65352 16.538C9.8426 15.9417 10.0768 15.3234 10.3562 14.6957C10.0878 14.0952 9.85316 13.4801 9.65352 12.8533ZM10.8885 12.5229C10.9575 12.7358 11.0325 12.9521 11.1134 13.1702C11.2578 12.9078 11.4077 12.6486 11.5631 12.3925C11.3331 12.4317 11.1083 12.4752 10.8894 12.5229H10.8885ZM19.6529 16.538C19.9425 16.4443 20.2168 16.3421 20.474 16.2313C21.7218 15.6964 22.3189 15.0917 22.3189 14.6957C22.3189 14.2996 21.7227 13.6949 20.474 13.16C20.2051 13.0454 19.9311 12.9431 19.6529 12.8533C19.4639 13.4496 19.2296 14.0679 18.9503 14.6957C19.2296 15.3234 19.4639 15.9409 19.6529 16.538ZM18.4179 16.8684C18.3489 16.6555 18.274 16.4392 18.1931 16.2211C18.0487 16.4835 17.8987 16.7428 17.7433 16.9988C17.9733 16.9596 18.1982 16.9161 18.4171 16.8684H18.4179Z" fill="#011221"/>
</g>
<defs>
<clipPath id="clip0_3054_457">
<rect width="20.4418" height="20.4418" fill="white" transform="translate(4.43213 4.47485)"/>
</clipPath>
</defs>
</svg>
