<svg width="62" height="53" viewBox="0 0 62 53" fill="none" xmlns="http://www.w3.org/2000/svg">
<path fill-rule="evenodd" clip-rule="evenodd" d="M25.6944 10.3792C24.5162 12.2403 21.8009 12.2395 20.6239 10.3776L14.6562 0.9375H0.21875L15.9405 25.7862L23.1503 37.1816L32.0711 51.2812C32.2009 51.5128 32.4456 51.6562 32.7111 51.6562H46.7188L31.3954 27.3376C30.7788 26.3589 30.7797 25.113 31.3978 24.1352L46.0625 0.9375H31.6719L25.6944 10.3792ZM18.5752 44.4189C22.2181 38.6562 20.1953 36.0156 14.9062 27.6562L2.51358 47.0403C1.23692 49.0372 2.67106 51.6562 5.04117 51.6562H14L18.5752 44.4189Z" fill="url(#paint0_linear_48_878)"/>
<path d="M45.2961 28.1286C44.5285 27.3343 44.5501 26.0682 45.3444 25.3006L51.816 19.0461C52.6103 18.2785 53.8764 18.3001 54.644 19.0944L60.8985 25.566C61.6661 26.3603 61.6445 27.6265 60.8502 28.3941L54.3786 34.6485C53.5843 35.4161 52.3182 35.3945 51.5506 34.6002L45.2961 28.1286Z" fill="url(#paint1_linear_48_878)"/>
<defs>
<linearGradient id="paint0_linear_48_878" x1="-135" y1="33.5" x2="70" y2="31.5" gradientUnits="userSpaceOnUse">
<stop stop-color="#8101FE"/>
<stop offset="1" stop-color="#FC9138"/>
</linearGradient>
<linearGradient id="paint1_linear_48_878" x1="-135" y1="33.5" x2="70" y2="31.5" gradientUnits="userSpaceOnUse">
<stop stop-color="#8101FE"/>
<stop offset="1" stop-color="#FC9138"/>
</linearGradient>
</defs>
</svg>
