<svg width="520" height="520" viewBox="0 0 520 520" fill="none" xmlns="http://www.w3.org/2000/svg">
<g clip-path="url(#clip0_4_5)">
<path d="M0 495V25C0 9.5 9 0 25 0H235C251.5 0 260 9.5 260 25V105C260 121 251 130 235 130H155C140.5 130 130 140.5 130 155V235C129.5 249 140 259.5 154.975 260H235C250.787 260 260 248.5 260 235V155C260 138 269.5 130 285 130H365C380.5 130 390 118.5 390 105V25C390 9.5 400 0 415 0H495C510 0 520 10 520 25V105C520 120 510 130 495 130H415C400.5 130 390 141 390 155V495C390 510.5 381 520 365 520H285C271.5 520 260 510.5 260 495V415C260 401 251 390 235 390H155C140 390 130 401 130 415V495C130 507.5 120.5 520 105 520H25C10.5 520 0 508.5 0 495Z" fill="url(#paint0_linear_4_5)"/>
</g>
<defs>
<linearGradient id="paint0_linear_4_5" x1="-34.5" y1="536.5" x2="558.5" y2="-21" gradientUnits="userSpaceOnUse">
<stop stop-color="#008BF8"/>
<stop offset="1" stop-color="#00DF93"/>
</linearGradient>
<clipPath id="clip0_4_5">
<rect width="520" height="520" fill="white"/>
</clipPath>
</defs>
</svg>
