<svg width="21" height="17" viewBox="0 0 21 17" fill="none" xmlns="http://www.w3.org/2000/svg">
<path d="M20.383 2.15599C19.6196 2.49368 18.81 2.71546 17.981 2.81399C18.8548 2.29142 19.5087 1.469 19.821 0.499988C19.001 0.987988 18.102 1.32999 17.165 1.51499C16.5356 0.841567 15.7014 0.394951 14.792 0.244572C13.8826 0.0941939 12.9489 0.248479 12.1363 0.683441C11.3236 1.1184 10.6774 1.80967 10.2981 2.64978C9.91884 3.48989 9.82775 4.43177 10.039 5.32899C8.37611 5.24564 6.74933 4.81351 5.26429 4.06065C3.77924 3.30779 2.46913 2.25104 1.419 0.958988C1.04729 1.59744 0.851955 2.32321 0.853 3.06199C0.853 4.51199 1.591 5.79299 2.713 6.54299C2.04901 6.52208 1.39963 6.34277 0.819 6.01999V6.07199C0.8192 7.03769 1.15337 7.9736 1.76485 8.72105C2.37633 9.46849 3.22748 9.98146 4.174 10.173C3.55761 10.34 2.91131 10.3646 2.284 10.245C2.55087 11.0762 3.07101 11.8032 3.77159 12.3241C4.47218 12.845 5.31813 13.1338 6.191 13.15C5.32348 13.8313 4.33018 14.335 3.26788 14.6322C2.20558 14.9293 1.09513 15.0142 0 14.882C1.9117 16.1114 4.1371 16.7641 6.41 16.762C14.103 16.762 18.31 10.389 18.31 4.86199C18.31 4.68199 18.305 4.49999 18.297 4.32199C19.1159 3.73016 19.8226 2.99701 20.384 2.15699L20.383 2.15599Z" fill="#607B96"/>
</svg>
