<?xml version="1.0" encoding="utf-8"?><svg version="1.1" id="Layer_1" xmlns="http://www.w3.org/2000/svg" xmlns:xlink="http://www.w3.org/1999/xlink" x="0px" y="0px" viewBox="0 0 115.28 122.88" style="enable-background:new 0 0 115.28 122.88" xml:space="preserve"><style type="text/css">.st0{fill-rule:evenodd;clip-rule:evenodd;}</style><g><path class="st0" d="M21.69,57h68.56V37.34H69.59c-2.17,0-5.19-1.17-6.62-2.6c-1.43-1.43-2.3-4.01-2.3-6.17V7.64l0,0H8.15 c-0.18,0-0.32,0.09-0.41,0.18C7.59,7.92,7.55,8.05,7.55,8.24v106.45c0,0.14,0.09,0.32,0.18,0.41c0.09,0.14,0.28,0.18,0.41,0.18 c22.78,0,58.09,0,81.51,0c0.18,0,0.17-0.09,0.27-0.18c0.14-0.09,0.33-0.28,0.33-0.41v-11.16H21.69c-4.14,0-7.56-3.4-7.56-7.56 V64.55C14.13,60.4,17.53,57,21.69,57L21.69,57z M38.7,86.94h-6.88l-0.99,3.24h-6.2l7.4-19.66h6.65l7.37,19.66h-6.36L38.7,86.94 L38.7,86.94z M37.42,82.68l-2.15-7.06l-2.15,7.06H37.42L37.42,82.68z M46.06,83.68l5.76-0.36c0.12,0.93,0.38,1.65,0.76,2.13 c0.63,0.79,1.52,1.19,2.68,1.19c0.86,0,1.53-0.2,2-0.61c0.47-0.41,0.7-0.88,0.7-1.41c0-0.51-0.22-0.97-0.66-1.37 c-0.44-0.4-1.48-0.78-3.1-1.14c-2.66-0.59-4.56-1.39-5.69-2.38c-1.14-0.99-1.72-2.25-1.72-3.79c0-1.01,0.29-1.96,0.88-2.86 c0.59-0.9,1.46-1.61,2.64-2.12s2.79-0.77,4.83-0.77c2.51,0,4.42,0.47,5.74,1.4c1.32,0.93,2.1,2.42,2.35,4.46l-5.71,0.34 c-0.15-0.89-0.47-1.54-0.96-1.94c-0.49-0.41-1.16-0.61-2.02-0.61c-0.7,0-1.24,0.15-1.6,0.45c-0.36,0.3-0.54,0.66-0.54,1.09 c0,0.31,0.15,0.59,0.43,0.84c0.28,0.26,0.96,0.5,2.03,0.72c2.65,0.57,4.55,1.15,5.7,1.74c1.15,0.59,1.99,1.31,2.51,2.18 c0.52,0.86,0.78,1.83,0.78,2.91c0,1.26-0.35,2.42-1.04,3.49c-0.7,1.06-1.67,1.87-2.92,2.42c-1.25,0.55-2.82,0.82-4.73,0.82 c-3.34,0-5.66-0.65-6.94-1.93C46.95,87.29,46.23,85.66,46.06,83.68L46.06,83.68z M66.03,70.52h10.1c2.2,0,3.85,0.52,4.95,1.57 c1.09,1.05,1.64,2.54,1.64,4.47c0,1.99-0.6,3.54-1.79,4.66c-1.19,1.12-3.02,1.68-5.47,1.68h-3.33v7.27h-6.09V70.52L66.03,70.52z M72.13,78.92h1.5c1.18,0,2.01-0.21,2.48-0.61c0.48-0.41,0.71-0.93,0.71-1.56c0-0.62-0.21-1.14-0.62-1.57 c-0.41-0.43-1.19-0.65-2.33-0.65h-1.74V78.92L72.13,78.92z M83.67,70.52h6.7l3.48,6.05l3.38-6.05h6.62l-6.11,9.52l6.68,10.13h-6.84 l-3.86-6.31l-3.88,6.31h-6.78l6.78-10.24L83.67,70.52L83.67,70.52z M97.79,57h9.93c4.16,0,7.56,3.41,7.56,7.56v31.42 c0,4.15-3.41,7.56-7.56,7.56h-9.93v13.55c0,1.61-0.65,3.04-1.7,4.1c-1.06,1.06-2.49,1.7-4.1,1.7c-29.44,0-56.59,0-86.18,0 c-1.61,0-3.04-0.64-4.1-1.7c-1.06-1.06-1.7-2.49-1.7-4.1V5.85c0-1.61,0.65-3.04,1.7-4.1c1.06-1.06,2.53-1.7,4.1-1.7h58.72 C64.66,0,64.8,0,64.94,0c0.64,0,1.29,0.28,1.75,0.69h0.09c0.09,0.05,0.14,0.09,0.23,0.18l29.99,30.36c0.51,0.51,0.88,1.2,0.88,1.98 c0,0.23-0.05,0.41-0.09,0.65V57L97.79,57z M67.52,27.97V8.94l21.43,21.7H70.19c-0.74,0-1.38-0.32-1.89-0.78 C67.84,29.4,67.52,28.71,67.52,27.97L67.52,27.97z"/></g></svg>