<svg width="21" height="21" viewBox="0 0 21 21" fill="none" xmlns="http://www.w3.org/2000/svg">
<path d="M10.8115 0.700684C5.31152 0.700684 0.811523 5.20068 0.811523 10.7007C0.811523 16.2007 5.31152 20.7007 10.8115 20.7007C16.3115 20.7007 20.8115 16.2007 20.8115 10.7007C20.8115 5.20068 16.3115 0.700684 10.8115 0.700684ZM5.24052 16.2717C3.74052 14.7717 2.95452 12.7717 2.95452 10.8437L10.7405 18.5577C8.74052 18.4867 6.74052 17.7717 5.24052 16.2717ZM12.5255 18.3437L3.16852 8.98668C3.95452 5.48668 7.09752 2.84368 10.8115 2.84368C13.4545 2.84368 15.7405 4.12968 17.1685 6.05768L16.0975 6.98668C14.8815 5.34368 12.9545 4.27068 10.8115 4.27068C8.02552 4.27068 5.66852 6.05668 4.74052 8.55668L12.9545 16.7707C15.0255 16.0567 16.5975 14.2707 17.0975 12.1287H13.6685V10.7007H18.6685C18.6685 14.4147 16.0255 17.5577 12.5255 18.3437Z" fill="#607B96"/>
</svg>
