<svg width="22" height="20" viewBox="0 0 22 20" fill="none" xmlns="http://www.w3.org/2000/svg">
<path opacity="0.4" d="M10.8115 11.4999C10.4137 11.4999 10.0322 11.3419 9.75086 11.0606C9.46956 10.7793 9.31152 10.3978 9.31152 9.99993C9.31152 9.60211 9.46956 9.22058 9.75086 8.93927C10.0322 8.65797 10.4137 8.49993 10.8115 8.49993C11.2093 8.49993 11.5909 8.65797 11.8722 8.93927C12.1535 9.22058 12.3115 9.60211 12.3115 9.99993C12.3115 10.3978 12.1535 10.7793 11.8722 11.0606C11.5909 11.3419 11.2093 11.4999 10.8115 11.4999ZM10.2835 14.4939C10.4585 14.7039 10.6345 14.9079 10.8115 15.1029C10.9885 14.9079 11.1645 14.7049 11.3395 14.4939C10.9876 14.5014 10.6355 14.5014 10.2835 14.4939ZM8.28852 14.3689C7.52058 14.289 6.75772 14.1662 6.00352 14.0009C5.92852 14.3509 5.87152 14.6909 5.83352 15.0169C5.64352 16.5999 5.90852 17.5619 6.31152 17.7939C6.71452 18.0269 7.67952 17.7749 8.95652 16.8199C9.21952 16.6229 9.48452 16.4039 9.75052 16.1649C9.23002 15.594 8.74192 14.9944 8.28852 14.3689ZM15.6195 14.0009C14.9025 14.1609 14.1365 14.2849 13.3345 14.3689C12.8811 14.9944 12.393 15.594 11.8725 16.1649C12.1385 16.4049 12.4035 16.6229 12.6665 16.8199C13.9435 17.7749 14.9085 18.0269 15.3115 17.7939C15.7145 17.5619 15.9785 16.5999 15.7905 15.0169C15.7492 14.6759 15.6925 14.3369 15.6205 14.0009H15.6195ZM17.0695 13.6139C17.6465 16.2529 17.3435 18.3539 16.0615 19.0939C14.7795 19.8339 12.8085 19.0459 10.8115 17.2269C8.81452 19.0459 6.84352 19.8329 5.56152 19.0929C4.27952 18.3529 3.97652 16.2529 4.55252 13.6129C1.97852 12.7939 0.311523 11.4799 0.311523 9.99993C0.311523 8.51993 1.97852 7.20693 4.55252 6.38593C3.97652 3.74693 4.27952 1.64593 5.56152 0.905931C6.84352 0.165931 8.81452 0.953931 10.8115 2.77293C12.8085 0.953931 14.7795 0.166931 16.0615 0.906931C17.3435 1.64693 17.6465 3.74693 17.0705 6.38693C19.6445 7.20593 21.3115 8.51993 21.3115 9.99993C21.3115 11.4799 19.6445 12.7929 17.0705 13.6139H17.0695ZM9.74952 3.83493C9.49521 3.60474 9.23061 3.38618 8.95652 3.17993C7.67952 2.22493 6.71452 1.97293 6.31152 2.20593C5.90852 2.43793 5.64452 3.39993 5.83252 4.98293C5.87252 5.30993 5.92852 5.64893 6.00252 5.99893C6.75705 5.83366 7.52025 5.7108 8.28852 5.63093C8.76352 4.97793 9.25352 4.37693 9.75052 3.83493H9.74952ZM13.3345 5.63093C14.1365 5.71493 14.9025 5.83993 15.6195 5.99893C15.6945 5.64893 15.7515 5.30893 15.7895 4.98293C15.9795 3.39993 15.7145 2.43793 15.3115 2.20593C14.9085 1.97293 13.9435 2.22493 12.6665 3.17993C12.3921 3.38616 12.1272 3.60471 11.8725 3.83493C12.3695 4.37693 12.8595 4.97793 13.3345 5.63093ZM11.3395 5.50593C11.1645 5.29593 10.9885 5.09193 10.8115 4.89693C10.6345 5.09193 10.4585 5.29493 10.2835 5.50593C10.6355 5.49846 10.9876 5.49846 11.3395 5.50593ZM7.18352 12.7039C7.00108 12.403 6.82504 12.0983 6.65552 11.7899C6.56052 12.0469 6.47252 12.2999 6.39252 12.5509C6.64952 12.6069 6.91352 12.6579 7.18252 12.7039H7.18352ZM9.11552 12.9379C10.2446 13.0218 11.3784 13.0218 12.5075 12.9379C13.1447 12.0019 13.7116 11.0199 14.2035 9.99993C13.7116 8.98001 13.1447 7.99798 12.5075 7.06193C11.3784 6.97807 10.2446 6.97807 9.11552 7.06193C8.47832 7.99798 7.91143 8.98001 7.41952 9.99993C7.91143 11.0199 8.47832 12.0019 9.11552 12.9379ZM14.9675 8.20993C15.0625 7.95293 15.1505 7.69993 15.2305 7.44893C14.9684 7.39204 14.705 7.34103 14.4405 7.29593C14.6226 7.59684 14.7983 7.90157 14.9675 8.20993ZM4.94152 7.83693C4.60152 7.94693 4.27952 8.06693 3.97752 8.19693C2.51252 8.82493 1.81152 9.53493 1.81152 9.99993C1.81152 10.4649 2.51152 11.1749 3.97752 11.8029C4.27952 11.9329 4.60152 12.0529 4.94152 12.1629C5.16352 11.4629 5.43852 10.7369 5.76652 9.99993C5.45135 9.2949 5.17592 8.57277 4.94152 7.83693ZM6.39152 7.44893C6.47252 7.69893 6.56052 7.95293 6.65552 8.20893C6.82505 7.9009 7.00109 7.5965 7.18352 7.29593C6.91352 7.34193 6.64952 7.39293 6.39252 7.44893H6.39152ZM16.6815 12.1629C17.0215 12.0529 17.3435 11.9329 17.6455 11.8029C19.1105 11.1749 19.8115 10.4649 19.8115 9.99993C19.8115 9.53493 19.1115 8.82493 17.6455 8.19693C17.3298 8.06243 17.0081 7.94231 16.6815 7.83693C16.4595 8.53693 16.1845 9.26293 15.8565 9.99993C16.1845 10.7369 16.4595 11.4619 16.6815 12.1629ZM15.2315 12.5509C15.1505 12.3009 15.0625 12.0469 14.9675 11.7909C14.798 12.099 14.622 12.4034 14.4395 12.7039C14.7095 12.6579 14.9735 12.6069 15.2305 12.5509H15.2315Z" fill="#607B96"/>
</svg>
